<mxfile host="Electron" agent="Mozilla/5.0 (Windows NT 10.0; Win64; x64) AppleWebKit/537.36 (KHTML, like Gecko) draw.io/28.1.2 Chrome/138.0.7204.243 Electron/37.4.0 Safari/537.36" version="28.1.2">
  <diagram name="Page-1" id="8CUQ4B_18l5agGgC37ih">
    <mxGraphModel dx="1389" dy="944" grid="1" gridSize="10" guides="1" tooltips="1" connect="1" arrows="1" fold="1" page="1" pageScale="1" pageWidth="827" pageHeight="1169" math="0" shadow="0">
      <root>
        <mxCell id="0" />
        <mxCell id="1" parent="0" />
        <mxCell id="I3nNI-eusDNkrygiXkrF-67" style="rounded=0;orthogonalLoop=1;jettySize=auto;html=1;" edge="1" parent="1" source="I3nNI-eusDNkrygiXkrF-2" target="I3nNI-eusDNkrygiXkrF-62">
          <mxGeometry relative="1" as="geometry" />
        </mxCell>
        <mxCell id="I3nNI-eusDNkrygiXkrF-69" style="rounded=0;orthogonalLoop=1;jettySize=auto;html=1;" edge="1" parent="1" source="I3nNI-eusDNkrygiXkrF-2" target="I3nNI-eusDNkrygiXkrF-20">
          <mxGeometry relative="1" as="geometry" />
        </mxCell>
        <mxCell id="I3nNI-eusDNkrygiXkrF-2" value="" style="rounded=0;whiteSpace=wrap;html=1;strokeColor=none;fillColor=light-dark(#1e4074, #ededed);" vertex="1" parent="1">
          <mxGeometry x="80" y="40" width="200" height="150" as="geometry" />
        </mxCell>
        <mxCell id="I3nNI-eusDNkrygiXkrF-3" value="&lt;font style=&quot;font-size: 15px;&quot;&gt;organizer of meeting&amp;nbsp;&lt;/font&gt;&lt;div&gt;&lt;font style=&quot;font-size: 15px;&quot;&gt;groups,&amp;nbsp;&lt;span style=&quot;background-color: transparent;&quot;&gt;meetings,&amp;nbsp;&lt;/span&gt;&lt;span style=&quot;background-color: transparent;&quot;&gt;member&lt;/span&gt;&lt;/font&gt;&lt;div&gt;&lt;div&gt;&lt;font style=&quot;font-size: 15px;&quot;&gt;of group, meeting attendee&lt;/font&gt;&lt;/div&gt;&lt;/div&gt;&lt;/div&gt;" style="text;html=1;align=center;verticalAlign=middle;resizable=0;points=[];autosize=1;strokeColor=none;fillColor=none;fontColor=light-dark(#ffffff, #ededed);" vertex="1" parent="1">
          <mxGeometry x="80" y="120" width="200" height="70" as="geometry" />
        </mxCell>
        <mxCell id="I3nNI-eusDNkrygiXkrF-4" value="" style="sketch=0;pointerEvents=1;shadow=0;dashed=0;html=1;strokeColor=none;fillColor=light-dark(#ffffff, #a8a8a8);labelPosition=center;verticalLabelPosition=bottom;verticalAlign=top;outlineConnect=0;align=center;shape=mxgraph.office.users.user;" vertex="1" parent="1">
          <mxGeometry x="154.25" y="50" width="51.5" height="50" as="geometry" />
        </mxCell>
        <mxCell id="I3nNI-eusDNkrygiXkrF-5" value="&lt;font style=&quot;font-size: 18px;&quot;&gt;&lt;b&gt;Member&lt;/b&gt;&lt;/font&gt;" style="text;html=1;align=center;verticalAlign=middle;resizable=0;points=[];autosize=1;strokeColor=none;fillColor=none;fontColor=light-dark(#ffffff, #ededed);" vertex="1" parent="1">
          <mxGeometry x="135" y="90" width="90" height="40" as="geometry" />
        </mxCell>
        <mxCell id="I3nNI-eusDNkrygiXkrF-66" style="rounded=0;orthogonalLoop=1;jettySize=auto;html=1;" edge="1" parent="1" source="I3nNI-eusDNkrygiXkrF-7" target="I3nNI-eusDNkrygiXkrF-62">
          <mxGeometry relative="1" as="geometry" />
        </mxCell>
        <mxCell id="I3nNI-eusDNkrygiXkrF-7" value="" style="rounded=0;whiteSpace=wrap;html=1;strokeColor=none;fillColor=light-dark(#1e4074, #ededed);" vertex="1" parent="1">
          <mxGeometry x="320" y="60" width="190" height="130" as="geometry" />
        </mxCell>
        <mxCell id="I3nNI-eusDNkrygiXkrF-8" value="&lt;span style=&quot;font-size: 15px;&quot;&gt;Administrator of the system&lt;/span&gt;" style="text;html=1;align=center;verticalAlign=middle;resizable=0;points=[];autosize=1;strokeColor=none;fillColor=none;fontColor=light-dark(#ffffff, #ededed);" vertex="1" parent="1">
          <mxGeometry x="310" y="160" width="210" height="30" as="geometry" />
        </mxCell>
        <mxCell id="I3nNI-eusDNkrygiXkrF-9" value="" style="sketch=0;pointerEvents=1;shadow=0;dashed=0;html=1;strokeColor=none;fillColor=light-dark(#ffffff, #a8a8a8);labelPosition=center;verticalLabelPosition=bottom;verticalAlign=top;outlineConnect=0;align=center;shape=mxgraph.office.users.user;" vertex="1" parent="1">
          <mxGeometry x="389.25" y="70" width="51.5" height="50" as="geometry" />
        </mxCell>
        <mxCell id="I3nNI-eusDNkrygiXkrF-10" value="&lt;font style=&quot;font-size: 18px;&quot;&gt;&lt;b&gt;Administrator&lt;/b&gt;&lt;/font&gt;" style="text;html=1;align=center;verticalAlign=middle;resizable=0;points=[];autosize=1;strokeColor=none;fillColor=none;fontColor=light-dark(#ffffff, #ededed);" vertex="1" parent="1">
          <mxGeometry x="345" y="110" width="140" height="40" as="geometry" />
        </mxCell>
        <mxCell id="I3nNI-eusDNkrygiXkrF-15" value="" style="rounded=0;whiteSpace=wrap;html=1;strokeColor=#23445d;fillColor=light-dark(#8d8896, #39454e);" vertex="1" parent="1">
          <mxGeometry x="2.5" y="480" width="165" height="68" as="geometry" />
        </mxCell>
        <mxCell id="I3nNI-eusDNkrygiXkrF-18" value="&lt;font style=&quot;font-size: 18px;&quot;&gt;&lt;b&gt;Email System&lt;/b&gt;&lt;/font&gt;" style="text;html=1;align=center;verticalAlign=middle;resizable=0;points=[];autosize=1;strokeColor=none;fillColor=none;fontColor=light-dark(#ffffff, #ededed);" vertex="1" parent="1">
          <mxGeometry x="15" y="480" width="140" height="40" as="geometry" />
        </mxCell>
        <mxCell id="I3nNI-eusDNkrygiXkrF-20" value="" style="rounded=0;whiteSpace=wrap;html=1;strokeColor=#23445d;fillColor=light-dark(#8d8896, #39454e);" vertex="1" parent="1">
          <mxGeometry x="82.5" y="720" width="195" height="68" as="geometry" />
        </mxCell>
        <mxCell id="I3nNI-eusDNkrygiXkrF-21" value="&lt;span style=&quot;font-size: 18px;&quot;&gt;&lt;b&gt;Payment Gateway&lt;/b&gt;&lt;/span&gt;" style="text;html=1;align=center;verticalAlign=middle;resizable=0;points=[];autosize=1;strokeColor=none;fillColor=none;fontColor=light-dark(#ffffff, #ededed);" vertex="1" parent="1">
          <mxGeometry x="90" y="720" width="180" height="40" as="geometry" />
        </mxCell>
        <object placeholders="1" c4Name="My Meetings System" c4Type="SystemScopeBoundary" c4Application="System" label="&lt;font style=&quot;font-size: 16px&quot;&gt;&lt;b&gt;&lt;div style=&quot;text-align: left&quot;&gt;%c4Name%&lt;/div&gt;&lt;/b&gt;&lt;/font&gt;&lt;div style=&quot;text-align: left&quot;&gt;[%c4Application%]&lt;/div&gt;" id="I3nNI-eusDNkrygiXkrF-39">
          <mxCell style="rounded=1;fontSize=11;whiteSpace=wrap;html=1;dashed=1;arcSize=20;fillColor=none;strokeColor=#666666;fontColor=#333333;labelBackgroundColor=none;align=left;verticalAlign=bottom;labelBorderColor=none;spacingTop=0;spacing=10;dashPattern=8 4;metaEdit=1;rotatable=0;perimeter=rectanglePerimeter;noLabel=0;labelPadding=0;allowArrows=0;connectable=0;expand=0;recursiveResize=0;editable=1;pointerEvents=0;absoluteArcSize=1;points=[[0.25,0,0],[0.5,0,0],[0.75,0,0],[1,0.25,0],[1,0.5,0],[1,0.75,0],[0.75,1,0],[0.5,1,0],[0.25,1,0],[0,0.75,0],[0,0.5,0],[0,0.25,0]];" vertex="1" parent="1">
            <mxGeometry x="280" y="240" width="540" height="400" as="geometry" />
          </mxCell>
        </object>
        <mxCell id="I3nNI-eusDNkrygiXkrF-41" value="Legend" style="shape=table;startSize=30;container=1;collapsible=0;childLayout=tableLayout;fontSize=16;align=left;verticalAlign=top;fillColor=none;strokeColor=none;fontColor=#4D4D4D;fontStyle=1;spacingLeft=6;spacing=0;resizable=0;" vertex="1" parent="1">
          <mxGeometry x="640" y="640" width="180" height="210" as="geometry" />
        </mxCell>
        <mxCell id="I3nNI-eusDNkrygiXkrF-42" value="" style="shape=tableRow;horizontal=0;startSize=0;swimlaneHead=0;swimlaneBody=0;strokeColor=inherit;top=0;left=0;bottom=0;right=0;collapsible=0;dropTarget=0;fillColor=none;points=[[0,0.5],[1,0.5]];portConstraint=eastwest;fontSize=12;" vertex="1" parent="I3nNI-eusDNkrygiXkrF-41">
          <mxGeometry y="30" width="180" height="30" as="geometry" />
        </mxCell>
        <mxCell id="I3nNI-eusDNkrygiXkrF-43" value="Person" style="shape=partialRectangle;html=1;whiteSpace=wrap;connectable=0;strokeColor=inherit;overflow=hidden;fillColor=#1E4074;top=0;left=0;bottom=0;right=0;pointerEvents=1;fontSize=12;align=left;fontColor=#FFFFFF;gradientColor=none;spacingLeft=10;spacingRight=4;" vertex="1" parent="I3nNI-eusDNkrygiXkrF-42">
          <mxGeometry width="180" height="30" as="geometry">
            <mxRectangle width="180" height="30" as="alternateBounds" />
          </mxGeometry>
        </mxCell>
        <mxCell id="I3nNI-eusDNkrygiXkrF-44" value="" style="shape=tableRow;horizontal=0;startSize=0;swimlaneHead=0;swimlaneBody=0;strokeColor=inherit;top=0;left=0;bottom=0;right=0;collapsible=0;dropTarget=0;fillColor=none;points=[[0,0.5],[1,0.5]];portConstraint=eastwest;fontSize=12;" vertex="1" parent="I3nNI-eusDNkrygiXkrF-41">
          <mxGeometry y="60" width="180" height="30" as="geometry" />
        </mxCell>
        <mxCell id="I3nNI-eusDNkrygiXkrF-45" value="System" style="shape=partialRectangle;html=1;whiteSpace=wrap;connectable=0;strokeColor=inherit;overflow=hidden;fillColor=#3162AF;top=0;left=0;bottom=0;right=0;pointerEvents=1;fontSize=12;align=left;fontColor=#FFFFFF;gradientColor=none;spacingLeft=10;spacingRight=4;" vertex="1" parent="I3nNI-eusDNkrygiXkrF-44">
          <mxGeometry width="180" height="30" as="geometry">
            <mxRectangle width="180" height="30" as="alternateBounds" />
          </mxGeometry>
        </mxCell>
        <mxCell id="I3nNI-eusDNkrygiXkrF-46" value="" style="shape=tableRow;horizontal=0;startSize=0;swimlaneHead=0;swimlaneBody=0;strokeColor=inherit;top=0;left=0;bottom=0;right=0;collapsible=0;dropTarget=0;fillColor=none;points=[[0,0.5],[1,0.5]];portConstraint=eastwest;fontSize=12;" vertex="1" parent="I3nNI-eusDNkrygiXkrF-41">
          <mxGeometry y="90" width="180" height="30" as="geometry" />
        </mxCell>
        <mxCell id="I3nNI-eusDNkrygiXkrF-47" value="Container" style="shape=partialRectangle;html=1;whiteSpace=wrap;connectable=0;strokeColor=inherit;overflow=hidden;fillColor=#52a2d8;top=0;left=0;bottom=0;right=0;pointerEvents=1;fontSize=12;align=left;fontColor=#FFFFFF;gradientColor=none;spacingLeft=10;spacingRight=4;" vertex="1" parent="I3nNI-eusDNkrygiXkrF-46">
          <mxGeometry width="180" height="30" as="geometry">
            <mxRectangle width="180" height="30" as="alternateBounds" />
          </mxGeometry>
        </mxCell>
        <mxCell id="I3nNI-eusDNkrygiXkrF-50" value="" style="shape=tableRow;horizontal=0;startSize=0;swimlaneHead=0;swimlaneBody=0;strokeColor=inherit;top=0;left=0;bottom=0;right=0;collapsible=0;dropTarget=0;fillColor=none;points=[[0,0.5],[1,0.5]];portConstraint=eastwest;fontSize=12;" vertex="1" parent="I3nNI-eusDNkrygiXkrF-41">
          <mxGeometry y="120" width="180" height="30" as="geometry" />
        </mxCell>
        <mxCell id="I3nNI-eusDNkrygiXkrF-51" value="External Person" style="shape=partialRectangle;html=1;whiteSpace=wrap;connectable=0;strokeColor=inherit;overflow=hidden;fillColor=#6b6477;top=0;left=0;bottom=0;right=0;pointerEvents=1;fontSize=12;align=left;fontColor=#FFFFFF;gradientColor=none;spacingLeft=10;spacingRight=4;" vertex="1" parent="I3nNI-eusDNkrygiXkrF-50">
          <mxGeometry width="180" height="30" as="geometry">
            <mxRectangle width="180" height="30" as="alternateBounds" />
          </mxGeometry>
        </mxCell>
        <mxCell id="I3nNI-eusDNkrygiXkrF-52" value="" style="shape=tableRow;horizontal=0;startSize=0;swimlaneHead=0;swimlaneBody=0;strokeColor=inherit;top=0;left=0;bottom=0;right=0;collapsible=0;dropTarget=0;fillColor=none;points=[[0,0.5],[1,0.5]];portConstraint=eastwest;fontSize=12;" vertex="1" parent="I3nNI-eusDNkrygiXkrF-41">
          <mxGeometry y="150" width="180" height="30" as="geometry" />
        </mxCell>
        <mxCell id="I3nNI-eusDNkrygiXkrF-53" value="External Software System" style="shape=partialRectangle;html=1;whiteSpace=wrap;connectable=0;strokeColor=inherit;overflow=hidden;fillColor=#8b8496;top=0;left=0;bottom=0;right=0;pointerEvents=1;fontSize=12;align=left;fontColor=#FFFFFF;gradientColor=none;spacingLeft=10;spacingRight=4;" vertex="1" parent="I3nNI-eusDNkrygiXkrF-52">
          <mxGeometry width="180" height="30" as="geometry">
            <mxRectangle width="180" height="30" as="alternateBounds" />
          </mxGeometry>
        </mxCell>
        <mxCell id="I3nNI-eusDNkrygiXkrF-48" value="" style="shape=tableRow;horizontal=0;startSize=0;swimlaneHead=0;swimlaneBody=0;strokeColor=inherit;top=0;left=0;bottom=0;right=0;collapsible=0;dropTarget=0;fillColor=none;points=[[0,0.5],[1,0.5]];portConstraint=eastwest;fontSize=12;" vertex="1" parent="I3nNI-eusDNkrygiXkrF-41">
          <mxGeometry y="180" width="180" height="30" as="geometry" />
        </mxCell>
        <mxCell id="I3nNI-eusDNkrygiXkrF-49" value="External container" style="shape=partialRectangle;html=1;whiteSpace=wrap;connectable=0;strokeColor=inherit;overflow=hidden;fillColor=light-dark(#B9B1CA,#235B88);top=0;left=0;bottom=0;right=0;pointerEvents=1;fontSize=12;align=left;fontColor=#FFFFFF;gradientColor=none;spacingLeft=10;spacingRight=4;" vertex="1" parent="I3nNI-eusDNkrygiXkrF-48">
          <mxGeometry width="180" height="30" as="geometry">
            <mxRectangle width="180" height="30" as="alternateBounds" />
          </mxGeometry>
        </mxCell>
        <mxCell id="I3nNI-eusDNkrygiXkrF-54" value="&lt;span style=&quot;font-size: 15px;&quot;&gt;3rd party payment service&lt;/span&gt;" style="text;html=1;align=center;verticalAlign=middle;resizable=0;points=[];autosize=1;strokeColor=none;fillColor=none;fontColor=light-dark(#ffffff, #ededed);" vertex="1" parent="1">
          <mxGeometry x="80" y="758" width="200" height="30" as="geometry" />
        </mxCell>
        <mxCell id="I3nNI-eusDNkrygiXkrF-55" value="&lt;span style=&quot;font-size: 15px;&quot;&gt;3rd party SMTP server&lt;/span&gt;" style="text;html=1;align=center;verticalAlign=middle;resizable=0;points=[];autosize=1;strokeColor=none;fillColor=none;fontColor=light-dark(#ffffff, #ededed);" vertex="1" parent="1">
          <mxGeometry y="520" width="170" height="30" as="geometry" />
        </mxCell>
        <object placeholders="1" c4Name="Database" c4Technology="My SQL" c4Description="Data about meeting groups,&#xa;members, meetings etc" label="&lt;font style=&quot;font-size: 18px&quot;&gt;&lt;b&gt;%c4Name%&lt;/b&gt;&lt;/font&gt;&lt;div&gt;[%c4Technology%]&lt;/div&gt;&lt;br&gt;&lt;div&gt;&lt;font style=&quot;font-size: 15px&quot;&gt;&lt;font color=&quot;#E6E6E6&quot;&gt;%c4Description%&lt;/font&gt;&lt;/div&gt;" id="I3nNI-eusDNkrygiXkrF-60">
          <mxCell style="shape=cylinder3;size=15;whiteSpace=wrap;html=1;boundedLbl=1;rounded=0;labelBackgroundColor=none;fillColor=#23A2D9;fontSize=12;fontColor=#ffffff;align=center;strokeColor=#0E7DAD;metaEdit=1;points=[[0.5,0,0],[1,0.25,0],[1,0.5,0],[1,0.75,0],[0.5,1,0],[0,0.75,0],[0,0.5,0],[0,0.25,0]];resizable=0;" vertex="1" parent="1">
            <mxGeometry x="570" y="475" width="240" height="120" as="geometry" />
          </mxCell>
        </object>
        <mxCell id="I3nNI-eusDNkrygiXkrF-65" style="edgeStyle=orthogonalEdgeStyle;rounded=0;orthogonalLoop=1;jettySize=auto;html=1;" edge="1" parent="1" source="I3nNI-eusDNkrygiXkrF-62" target="I3nNI-eusDNkrygiXkrF-63">
          <mxGeometry relative="1" as="geometry" />
        </mxCell>
        <object placeholders="1" c4Name="SPA" c4Type="ReactJS" c4Description="GUI for the application" label="&lt;font style=&quot;font-size: 18px&quot;&gt;&lt;b&gt;%c4Name%&lt;/b&gt;&lt;/font&gt;&lt;div&gt;[%c4Type%]&lt;/div&gt;&lt;br&gt;&lt;div&gt;&lt;font style=&quot;font-size: 15px&quot;&gt;&lt;font color=&quot;#E6E6E6&quot;&gt;%c4Description%&lt;/font&gt;&lt;/div&gt;" id="I3nNI-eusDNkrygiXkrF-62">
          <mxCell style="rounded=1;whiteSpace=wrap;html=1;fontSize=11;labelBackgroundColor=none;fillColor=#23A2D9;fontColor=#ffffff;align=center;arcSize=10;strokeColor=#0E7DAD;metaEdit=1;resizable=0;points=[[0.25,0,0],[0.5,0,0],[0.75,0,0],[1,0.25,0],[1,0.5,0],[1,0.75,0],[0.75,1,0],[0.5,1,0],[0.25,1,0],[0,0.75,0],[0,0.5,0],[0,0.25,0]];perimeterSpacing=0;" vertex="1" parent="1">
            <mxGeometry x="290" y="270" width="240" height="120" as="geometry" />
          </mxCell>
        </object>
        <mxCell id="I3nNI-eusDNkrygiXkrF-64" style="edgeStyle=orthogonalEdgeStyle;rounded=0;orthogonalLoop=1;jettySize=auto;html=1;" edge="1" parent="1" source="I3nNI-eusDNkrygiXkrF-63" target="I3nNI-eusDNkrygiXkrF-60">
          <mxGeometry relative="1" as="geometry">
            <Array as="points">
              <mxPoint x="440" y="460" />
              <mxPoint x="690" y="460" />
            </Array>
          </mxGeometry>
        </mxCell>
        <mxCell id="I3nNI-eusDNkrygiXkrF-70" style="rounded=0;orthogonalLoop=1;jettySize=auto;html=1;" edge="1" parent="1" source="I3nNI-eusDNkrygiXkrF-63" target="I3nNI-eusDNkrygiXkrF-15">
          <mxGeometry relative="1" as="geometry" />
        </mxCell>
        <mxCell id="I3nNI-eusDNkrygiXkrF-71" style="rounded=0;orthogonalLoop=1;jettySize=auto;html=1;" edge="1" parent="1" source="I3nNI-eusDNkrygiXkrF-63" target="I3nNI-eusDNkrygiXkrF-20">
          <mxGeometry relative="1" as="geometry">
            <mxPoint x="300" y="760" as="targetPoint" />
          </mxGeometry>
        </mxCell>
        <object placeholders="1" c4Name="My Meetings API" c4Type=".Net Core" c4Description="Backend" label="&lt;font style=&quot;font-size: 18px&quot;&gt;&lt;b&gt;%c4Name%&lt;/b&gt;&lt;/font&gt;&lt;div&gt;[%c4Type%]&lt;/div&gt;&lt;br&gt;&lt;div&gt;&lt;font style=&quot;font-size: 15px&quot;&gt;&lt;font color=&quot;#E6E6E6&quot;&gt;%c4Description%&lt;/font&gt;&lt;/div&gt;" id="I3nNI-eusDNkrygiXkrF-63">
          <mxCell style="rounded=1;whiteSpace=wrap;html=1;fontSize=11;labelBackgroundColor=none;fillColor=#23A2D9;fontColor=#ffffff;align=center;arcSize=10;strokeColor=#0E7DAD;metaEdit=1;resizable=0;points=[[0.25,0,0],[0.5,0,0],[0.75,0,0],[1,0.25,0],[1,0.5,0],[1,0.75,0],[0.75,1,0],[0.5,1,0],[0.25,1,0],[0,0.75,0],[0,0.5,0],[0,0.25,0]];" vertex="1" parent="1">
            <mxGeometry x="290" y="475" width="240" height="120" as="geometry" />
          </mxCell>
        </object>
        <mxCell id="I3nNI-eusDNkrygiXkrF-72" value="&lt;b&gt;Uses&lt;/b&gt;&lt;div&gt;[HTTP]&lt;/div&gt;" style="text;html=1;align=center;verticalAlign=middle;resizable=0;points=[];autosize=1;strokeColor=none;fillColor=none;" vertex="1" parent="1">
          <mxGeometry x="354" y="410" width="60" height="40" as="geometry" />
        </mxCell>
        <mxCell id="I3nNI-eusDNkrygiXkrF-73" value="&lt;b&gt;Read/Writes&lt;/b&gt;&lt;div&gt;[SQL]&lt;/div&gt;" style="text;html=1;align=center;verticalAlign=middle;resizable=0;points=[];autosize=1;strokeColor=none;fillColor=none;" vertex="1" parent="1">
          <mxGeometry x="530" y="420" width="90" height="40" as="geometry" />
        </mxCell>
        <mxCell id="I3nNI-eusDNkrygiXkrF-74" value="&lt;b&gt;Uses&lt;/b&gt;&lt;div&gt;[HTTP]&lt;/div&gt;" style="text;html=1;align=center;verticalAlign=middle;resizable=0;points=[];autosize=1;strokeColor=none;fillColor=none;" vertex="1" parent="1">
          <mxGeometry x="414" y="200" width="60" height="40" as="geometry" />
        </mxCell>
        <mxCell id="I3nNI-eusDNkrygiXkrF-75" value="&lt;b&gt;Uses&lt;/b&gt;&lt;div&gt;[HTTP]&lt;/div&gt;" style="text;html=1;align=center;verticalAlign=middle;resizable=0;points=[];autosize=1;strokeColor=none;fillColor=none;" vertex="1" parent="1">
          <mxGeometry x="300" y="200" width="60" height="40" as="geometry" />
        </mxCell>
        <mxCell id="I3nNI-eusDNkrygiXkrF-76" value="&lt;b&gt;Make payment via&lt;/b&gt;&lt;div&gt;[HTTP]&lt;/div&gt;" style="text;html=1;align=center;verticalAlign=middle;resizable=0;points=[];autosize=1;strokeColor=none;fillColor=none;" vertex="1" parent="1">
          <mxGeometry x="50" y="370" width="130" height="40" as="geometry" />
        </mxCell>
        <mxCell id="I3nNI-eusDNkrygiXkrF-77" value="&lt;b&gt;Sends email using&lt;/b&gt;&lt;div&gt;[SMTP]&lt;/div&gt;" style="text;html=1;align=center;verticalAlign=middle;resizable=0;points=[];autosize=1;strokeColor=none;fillColor=none;" vertex="1" parent="1">
          <mxGeometry x="170" y="490" width="130" height="40" as="geometry" />
        </mxCell>
        <mxCell id="I3nNI-eusDNkrygiXkrF-79" value="&lt;b&gt;Delegate the payment&lt;/b&gt;&lt;div&gt;[HTTP]&lt;/div&gt;" style="text;html=1;align=center;verticalAlign=middle;resizable=0;points=[];autosize=1;strokeColor=none;fillColor=none;" vertex="1" parent="1">
          <mxGeometry x="255" y="670" width="150" height="40" as="geometry" />
        </mxCell>
      </root>
    </mxGraphModel>
  </diagram>
</mxfile>
